<svg width="288" height="211" xmlns="http://www.w3.org/2000/svg" xmlns:xlink="http://www.w3.org/1999/xlink" overflow="hidden"><defs><clipPath id="clip0"><path d="M0 0 288 0 288 211 0 211Z" fill-rule="evenodd" clip-rule="evenodd"/></clipPath></defs><g clip-path="url(#clip0)"><rect x="0" y="0" width="287.773" height="211" fill="#1A1918" transform="scale(1.00079 1)"/><path d="M0 0-136.595-75.8728" stroke="#7AB547" stroke-width="2.99763" stroke-miterlimit="8" fill="#7AB547" fill-rule="evenodd" transform="matrix(1.00079 8.74918e-08 8.74228e-08 -1 253.203 61.5)"/><path d="M0 0-127.779-74.1674" stroke="#7AB547" stroke-width="2.99763" stroke-miterlimit="8" fill="#7AB547" fill-rule="evenodd" transform="matrix(1.00079 8.74918e-08 8.74228e-08 -1 222.38 48.5)"/><path d="M0 0-130.519-78.1332" stroke="#7AB547" stroke-width="2.99763" stroke-miterlimit="8" fill="#7AB547" fill-rule="evenodd" transform="matrix(1.00079 8.74918e-08 8.74228e-08 -1 216.122 14.5)"/><path d="M0 0 1.46026 14.5038" stroke="#7AB547" stroke-width="2.99763" stroke-miterlimit="8" fill="#7AB547" fill-rule="evenodd" transform="matrix(1.00079 0 -0 1 85.5001 92.5)"/><path d="M0 0 21.2823 16.1037" stroke="#7AB547" stroke-width="2.99763" stroke-miterlimit="8" fill="#7AB547" fill-rule="evenodd" transform="matrix(1.00079 0 -0 1 95.5001 122.5)"/><path d="M0 0 2.43881 12.6012" stroke="#7AB547" stroke-width="2.99763" stroke-miterlimit="8" fill="#7AB547" fill-rule="evenodd" transform="matrix(1.00079 0 -0 1 60.5001 125.5)"/><path d="M0 0-77.7252-19.499" stroke="#7AB547" stroke-width="2.99763" stroke-miterlimit="8" fill="#7AB547" fill-rule="evenodd" transform="matrix(-1.00079 -0 -0 1 40.5001 155.999)"/><path d="M0 0-45.5714-63.6318" stroke="#7AB547" stroke-width="2.99763" stroke-miterlimit="8" fill="#7AB547" fill-rule="evenodd" transform="matrix(-1.00079 -0 -0 1 40.5001 154.132)"/><path d="M0 0 10.302 9.10535" stroke="#7AB547" stroke-width="2.99763" stroke-miterlimit="8" fill="#7AB547" fill-rule="evenodd" transform="matrix(1.00079 0 -0 1 63.5001 138.5)"/><path d="M0 0 6.30725 13.3041" stroke="#7AB547" stroke-width="2.99763" stroke-miterlimit="8" fill="#7AB547" fill-rule="evenodd" transform="matrix(1.00079 0 -0 1 88.5001 108.5)"/><path d="M0 0-133.254-75.3253" stroke="#7AB547" stroke-width="2.99763" stroke-miterlimit="8" fill="#7AB547" fill-rule="evenodd" transform="matrix(1.00079 8.74918e-08 8.74228e-08 -1 219.86 30.5)"/><text fill="#FFFFFF" font-family="Berlin Sans FB,Berlin Sans FB_MSFontService,sans-serif" font-weight="600" font-size="48" transform="matrix(1 0 0 0.999211 35.5015 199)">I<tspan font-size="37" x="14.3333" y="0">MAGINAIRE</tspan></text><path d="M0 4.99999C-6.36064e-16 2.23857 2.23681 -6.36565e-16 4.99605-1.27313e-15 7.7553-2.54626e-15 9.99211 2.23857 9.99211 4.99999 9.99211 7.7614 7.7553 9.99998 4.99605 9.99998 2.23681 9.99998-3.18032e-15 7.7614 0 4.99999Z" stroke="#FFFFFF" stroke-width="0.66614" stroke-miterlimit="8" fill="#7AB547" fill-rule="evenodd" transform="matrix(1.00079 0 -0 1 55.5001 121.5)"/><path d="M0 4.99999C-6.36064e-16 2.23857 2.23681 -6.36565e-16 4.99605-1.27313e-15 7.7553-2.54626e-15 9.99211 2.23857 9.99211 4.99999 9.99211 7.7614 7.7553 9.99998 4.99605 9.99998 2.23681 9.99998-3.18032e-15 7.7614 0 4.99999Z" stroke="#FFFFFF" stroke-width="0.66614" stroke-miterlimit="8" fill="#7AB547" fill-rule="evenodd" transform="matrix(1.00079 0 -0 1 38.5001 148.5)"/><path d="M0 4.99999C-6.36064e-16 2.23857 2.23681 -6.36565e-16 4.99605-1.27313e-15 7.7553-2.54626e-15 9.99211 2.23857 9.99211 4.99999 9.99211 7.7614 7.7553 9.99998 4.99605 9.99998 2.23681 9.99998-3.18032e-15 7.7614 0 4.99999Z" stroke="#FFFFFF" stroke-width="0.66614" stroke-miterlimit="8" fill="#7AB547" fill-rule="evenodd" transform="matrix(1.00079 0 -0 1 59.5001 133.5)"/><path d="M0 4.50002C-6.36064e-16 2.01473 2.23681 -5.72912e-16 4.99605-1.14582e-15 7.7553-2.29165e-15 9.99211 2.01473 9.99211 4.50002 9.99211 6.9853 7.7553 9.00003 4.99605 9.00003 2.23681 9.00003-3.18032e-15 6.9853 0 4.50002Z" stroke="#FFFFFF" stroke-width="0.66614" stroke-miterlimit="8" fill="#7AB547" fill-rule="evenodd" transform="matrix(1.00079 0 -0 1 80.5001 87.5)"/><path d="M0 4.99999C-5.72458e-16 2.23857 2.01313 -6.36565e-16 4.49645-1.27313e-15 6.97977-2.54626e-15 8.9929 2.23857 8.9929 4.99999 8.9929 7.7614 6.97977 9.99998 4.49645 9.99998 2.01313 9.99998-2.86229e-15 7.7614 0 4.99999Z" stroke="#FFFFFF" stroke-width="0.66614" stroke-miterlimit="8" fill="#7AB547" fill-rule="evenodd" transform="matrix(1.00079 0 -0 1 83.5001 100.5)"/><path d="M0 4.99999C-5.72458e-16 2.23857 2.01313 -6.36565e-16 4.49645-1.27313e-15 6.97977-2.54626e-15 8.9929 2.23857 8.9929 4.99999 8.9929 7.7614 6.97977 9.99998 4.49645 9.99998 2.01313 9.99998-2.86229e-15 7.7614 0 4.99999Z" stroke="#FFFFFF" stroke-width="0.66614" stroke-miterlimit="8" fill="#7AB547" fill-rule="evenodd" transform="matrix(1.00079 0 -0 1 91.5001 116.5)"/><path d="M0 4.99999C-6.36064e-16 2.23857 2.23681 -6.36565e-16 4.99605-1.27313e-15 7.7553-2.54626e-15 9.99211 2.23857 9.99211 4.99999 9.99211 7.7614 7.7553 9.99998 4.99605 9.99998 2.23681 9.99998-3.18032e-15 7.7614 0 4.99999Z" stroke="#FFFFFF" stroke-width="0.66614" stroke-miterlimit="8" fill="#7AB547" fill-rule="evenodd" transform="matrix(1.00079 0 -0 1 69.5001 143.5)"/><path d="M0 4.50002C-6.36064e-16 2.01473 2.23681 -5.72912e-16 4.99605-1.14582e-15 7.7553-2.29165e-15 9.99211 2.01473 9.99211 4.50002 9.99211 6.9853 7.7553 9.00003 4.99605 9.00003 2.23681 9.00003-3.18032e-15 6.9853 0 4.50002Z" stroke="#FFFFFF" stroke-width="0.66614" stroke-miterlimit="8" fill="#7AB547" fill-rule="evenodd" transform="matrix(1.00079 0 -0 1 112.5 132.5)"/><path d="M0 4.50002C-6.36064e-16 2.01473 2.23681 -5.72912e-16 4.99605-1.14582e-15 7.7553-2.29165e-15 9.99211 2.01473 9.99211 4.50002 9.99211 6.9853 7.7553 9.00003 4.99605 9.00003 2.23681 9.00003-3.18032e-15 6.9853 0 4.50002Z" stroke="#FFFFFF" stroke-width="0.66614" stroke-miterlimit="8" fill="#7AB547" fill-rule="evenodd" transform="matrix(1.00079 0 -0 1 211.5 9.5)"/><path d="M0 4.50002C-6.36064e-16 2.01473 2.23681 -5.72912e-16 4.99605-1.14582e-15 7.7553-2.29165e-15 9.99211 2.01473 9.99211 4.50002 9.99211 6.9853 7.7553 9.00003 4.99605 9.00003 2.23681 9.00003-3.18032e-15 6.9853 0 4.50002Z" stroke="#FFFFFF" stroke-width="0.66614" stroke-miterlimit="8" fill="#7AB547" fill-rule="evenodd" transform="matrix(1.00079 0 -0 1 213.5 27.5)"/><path d="M0 5.00004C-6.36064e-16 2.23859 2.23681 -6.36572e-16 4.99605-1.27314e-15 7.7553-2.54629e-15 9.99211 2.23859 9.99211 5.00004 9.99211 7.76149 7.7553 10.0001 4.99605 10.0001 2.23681 10.0001-3.18032e-15 7.76149 0 5.00004Z" stroke="#FFFFFF" stroke-width="0.66614" stroke-miterlimit="8" fill="#7AB547" fill-rule="evenodd" transform="matrix(1.00079 0 -0 1 217.5 44.5)"/><path d="M0 4.99999C-6.36064e-16 2.23857 2.23681 -6.36565e-16 4.99605-1.27313e-15 7.7553-2.54626e-15 9.99211 2.23857 9.99211 4.99999 9.99211 7.7614 7.7553 9.99998 4.99605 9.99998 2.23681 9.99998-3.18032e-15 7.7614 0 4.99999Z" stroke="#FFFFFF" stroke-width="0.66614" stroke-miterlimit="8" fill="#7AB547" fill-rule="evenodd" transform="matrix(1.00079 0 -0 1 250.5 56.5)"/></g></svg>